<?xml version="1.0" encoding="utf-8"?>
<!-- Generator: Adobe Illustrator 26.5.0, SVG Export Plug-In . SVG Version: 6.00 Build 0)  -->
<svg version="1.1" id="Layer_1" xmlns="http://www.w3.org/2000/svg" xmlns:xlink="http://www.w3.org/1999/xlink" x="0px" y="0px"
	 viewBox="0 0 211.9 41.7" style="enable-background:new 0 0 211.9 41.7;" xml:space="preserve">
<style type="text/css">
	.st0{fill:#F6F6F6;}
</style>
<g>
	<g>
		<path class="st0" d="M163.2,25.3v8.1h9.4v3.4h-13.4V25.3H163.2z"/>
		<path class="st0" d="M173.4,36.8l6.9-11.5h4.5l7,11.5h-4.4l-6-10.3h2.4l-5.9,10.3H173.4z M177,35.1v-2.7h11v2.7H177z"/>
		<path class="st0" d="M193,36.8V25.3h10.1c2.1,0,3.6,0.2,4.6,0.7c1,0.5,1.5,1.3,1.5,2.4c0,0.7-0.2,1.3-0.6,1.7
			c-0.4,0.4-1,0.7-1.8,0.8c-0.8,0.2-1.7,0.2-2.8,0.3L204,31c0.8,0,1.5,0,2.2,0.1c0.7,0,1.3,0.2,1.8,0.3c0.5,0.2,0.9,0.4,1.2,0.8
			c0.3,0.3,0.4,0.8,0.4,1.4c0,0.7-0.2,1.4-0.7,1.8c-0.5,0.5-1.1,0.8-2,1.1c-0.9,0.2-1.9,0.4-3.1,0.4H193z M197,30.2h6.2
			c0.6,0,1-0.1,1.2-0.2c0.3-0.1,0.4-0.3,0.4-0.6c0-0.3-0.1-0.5-0.4-0.6c-0.3-0.1-0.7-0.2-1.2-0.2H197V30.2z M197,33.4h6.9
			c0.6,0,1-0.1,1.2-0.2c0.3-0.1,0.4-0.3,0.4-0.6c0-0.2-0.1-0.3-0.2-0.4c-0.1-0.1-0.3-0.2-0.5-0.2c-0.2-0.1-0.5-0.1-0.9-0.1H197V33.4
			z"/>
	</g>
	<g>
		<path class="st0" d="M23.3,17.4h4.4c0.1,0.3,0.3,0.5,0.7,0.6c0.4,0.2,0.9,0.3,1.5,0.4c0.6,0.1,1.3,0.1,2.1,0.1
			c0.8,0,1.4,0,1.9-0.1c0.5-0.1,0.8-0.2,1-0.3c0.2-0.1,0.3-0.3,0.3-0.6c0-0.2-0.2-0.4-0.5-0.5c-0.3-0.1-0.9-0.2-1.7-0.3
			s-1.9-0.1-3.3-0.1c-1.1,0-2-0.1-2.8-0.2c-0.8-0.1-1.4-0.3-1.9-0.5c-0.5-0.2-0.9-0.6-1.1-0.9c-0.2-0.4-0.4-0.8-0.4-1.4
			c0-0.9,0.3-1.7,0.8-2.3c0.6-0.6,1.4-1,2.5-1.3c1.1-0.3,2.5-0.4,4.2-0.4c2.5,0,4.3,0.4,5.6,1.2c1.3,0.8,2,2,2,3.5h-4.2
			c-0.1-0.4-0.4-0.7-1-0.9c-0.6-0.2-1.5-0.3-2.6-0.3c-1.1,0-1.9,0.1-2.5,0.2c-0.5,0.1-0.8,0.4-0.8,0.7c0,0.2,0.1,0.3,0.2,0.4
			c0.1,0.1,0.4,0.2,0.8,0.3c0.4,0.1,0.9,0.1,1.6,0.1c0.7,0,1.5,0,2.6,0c1.1,0,2.1,0.1,2.9,0.2c0.8,0.1,1.5,0.3,2,0.6
			c0.5,0.3,0.9,0.6,1.1,1c0.2,0.4,0.3,0.9,0.3,1.4c0,0.9-0.3,1.7-0.8,2.2c-0.5,0.6-1.3,1-2.4,1.3c-1.1,0.3-2.6,0.4-4.4,0.4
			c-1,0-2-0.1-2.8-0.2c-0.9-0.1-1.6-0.3-2.3-0.6c-0.7-0.3-1.2-0.6-1.7-1c-0.5-0.4-0.8-0.8-1.1-1.3C23.5,18.5,23.3,17.9,23.3,17.4z"
			/>
		<path class="st0" d="M40.2,10.1h16.7v3.4H40.2V10.1z M46.6,13.2h4v8.4h-4V13.2z"/>
		<path class="st0" d="M55.5,21.6l6.9-11.5h4.5l7,11.5h-4.4l-6-10.3h2.4l-5.9,10.3H55.5z M59.1,19.9v-2.7c0,0,11,0,11,0v2.7H59.1z"
			/>
		<path class="st0" d="M75.1,21.6V10.1h12.4c1,0,1.9,0.1,2.6,0.4c0.8,0.2,1.4,0.7,1.8,1.2c0.5,0.6,0.7,1.4,0.7,2.4
			c0,0.7-0.1,1.2-0.3,1.6c-0.2,0.4-0.5,0.8-0.9,1c-0.4,0.2-0.8,0.4-1.3,0.5c-0.5,0.1-1,0.2-1.5,0.2l-1.2-0.3c1.3,0,2.3,0.1,2.9,0.2
			c0.7,0.1,1.2,0.3,1.4,0.6c0.3,0.3,0.4,0.7,0.4,1.2v2.5h-4v-1.9c0-0.4-0.1-0.6-0.2-0.8c-0.1-0.2-0.4-0.3-0.8-0.4s-1-0.1-1.9-0.1
			h-6.3v3.2H75.1z M79.1,15.3h8.4c0.3,0,0.6-0.1,0.8-0.2c0.2-0.1,0.3-0.3,0.3-0.7c0-0.3-0.1-0.5-0.3-0.6c-0.2-0.1-0.5-0.2-0.8-0.2
			h-8.4V15.3z"/>
		<path class="st0" d="M106.5,10.1c1.4,0,2.6,0.2,3.6,0.5c0.9,0.3,1.7,0.7,2.2,1.3c0.5,0.5,0.9,1.2,1.1,1.8c0.2,0.7,0.3,1.4,0.3,2.2
			c0,0.8-0.1,1.5-0.4,2.2c-0.2,0.7-0.7,1.3-1.2,1.8c-0.6,0.5-1.3,1-2.2,1.3c-0.9,0.3-2.1,0.5-3.4,0.5H94.9V10.1H106.5z M98.9,18h7.4
			c0.6,0,1.1,0,1.5-0.1c0.4-0.1,0.8-0.2,1-0.4s0.4-0.4,0.5-0.7c0.1-0.3,0.2-0.6,0.2-0.9s-0.1-0.7-0.2-0.9c-0.1-0.3-0.3-0.5-0.5-0.7
			s-0.6-0.3-1-0.4c-0.4-0.1-0.9-0.1-1.5-0.1h-7.4V18z"/>
		<path class="st0" d="M130.3,15v-5h4v5.8c0,1-0.2,1.9-0.5,2.6c-0.3,0.7-0.8,1.3-1.4,1.8c-0.6,0.5-1.3,0.8-2.1,1.1
			c-0.8,0.3-1.6,0.4-2.5,0.5c-0.9,0.1-1.8,0.2-2.7,0.2c-1,0-1.9-0.1-2.8-0.2c-0.9-0.1-1.8-0.3-2.5-0.5c-0.8-0.3-1.5-0.6-2-1.1
			c-0.6-0.5-1-1.1-1.4-1.8c-0.3-0.7-0.5-1.6-0.5-2.6v-5.8h4v5c0,1,0.2,1.7,0.6,2.2c0.4,0.5,1,0.9,1.8,1c0.8,0.2,1.7,0.3,2.8,0.3
			c1.1,0,2-0.1,2.8-0.3c0.8-0.2,1.4-0.5,1.8-1C130.1,16.7,130.3,16,130.3,15z"/>
		<path class="st0" d="M136,17.4h4.4c0.1,0.3,0.3,0.5,0.7,0.6c0.4,0.2,0.9,0.3,1.5,0.4c0.6,0.1,1.3,0.1,2.1,0.1c0.8,0,1.4,0,1.9-0.1
			c0.5-0.1,0.8-0.2,1-0.3c0.2-0.1,0.3-0.3,0.3-0.6c0-0.2-0.2-0.4-0.5-0.5c-0.3-0.1-0.9-0.2-1.7-0.3c-0.8,0-1.9-0.1-3.3-0.1
			c-1.1,0-2-0.1-2.8-0.2c-0.8-0.1-1.4-0.3-1.9-0.5c-0.5-0.2-0.9-0.6-1.1-0.9c-0.2-0.4-0.4-0.8-0.4-1.4c0-0.9,0.3-1.7,0.8-2.3
			c0.6-0.6,1.4-1,2.5-1.3c1.1-0.3,2.5-0.4,4.2-0.4c2.5,0,4.3,0.4,5.6,1.2c1.3,0.8,2,2,2,3.5h-4.2c-0.1-0.4-0.4-0.7-1-0.9
			c-0.6-0.2-1.5-0.3-2.6-0.3c-1.1,0-1.9,0.1-2.5,0.2c-0.5,0.1-0.8,0.4-0.8,0.7c0,0.2,0.1,0.3,0.2,0.4c0.1,0.1,0.4,0.2,0.8,0.3
			c0.4,0.1,0.9,0.1,1.6,0.1c0.7,0,1.5,0,2.6,0c1.1,0,2.1,0.1,2.9,0.2c0.8,0.1,1.5,0.3,2,0.6c0.5,0.3,0.9,0.6,1.1,1
			c0.2,0.4,0.3,0.9,0.3,1.4c0,0.9-0.3,1.7-0.8,2.2c-0.5,0.6-1.3,1-2.4,1.3c-1.1,0.3-2.6,0.4-4.4,0.4c-1,0-2-0.1-2.8-0.2
			c-0.9-0.1-1.6-0.3-2.3-0.6c-0.7-0.3-1.2-0.6-1.7-1c-0.5-0.4-0.8-0.8-1.1-1.3C136.1,18.5,136,17.9,136,17.4z"/>
		<path class="st0" d="M152.9,10.1h16.7v3.4h-16.7V10.1z M159.2,13.2h4v8.4h-4V13.2z"/>
	</g>
	<g>
		<path class="st0" d="M21.8,25.7c-3.6-6.3-4-13.1-1.2-20.5l-6.4,11.5L21.8,25.7z"/>
		<path class="st0" d="M12,14.7l8.5-9.5C14.8,9.9,8.8,11,2.5,8.5L12,14.7z"/>
		<path class="st0" d="M2.5,8.5c3.6,6.3,4,13.1,1.2,20.5l6.4-11.5L2.5,8.5z"/>
		<path class="st0" d="M3.7,29c5.8-4.7,11.8-5.8,18.1-3.3l-9.5-6.2L3.7,29z"/>
	</g>
</g>
</svg>
