<svg width="134" height="26" viewBox="0 0 134 26" fill="none" xmlns="http://www.w3.org/2000/svg">
<path d="M9.00681 8.75827C9.27512 7.9325 10.4434 7.9325 10.7117 8.75826L11.8715 12.328C11.9915 12.6973 12.3357 12.9473 12.724 12.9473H16.4774C17.3457 12.9473 17.7067 14.0584 17.0042 14.5687L13.9676 16.775C13.6535 17.0032 13.5221 17.4078 13.642 17.7771L14.8019 21.3468C15.0702 22.1726 14.1251 22.8592 13.4227 22.3489L10.3861 20.1427C10.0719 19.9144 9.64655 19.9144 9.33241 20.1427L6.29581 22.3489C5.59337 22.8592 4.64824 22.1726 4.91655 21.3468L6.07643 17.7771C6.19642 17.4078 6.06497 17.0032 5.75083 16.775L2.71423 14.5687C2.01179 14.0584 2.37279 12.9473 3.24105 12.9473H6.9945C7.3828 12.9473 7.72694 12.6973 7.84693 12.328L9.00681 8.75827Z" fill="#FFB800"/>
<path d="M30.518 8.75827C30.7863 7.9325 31.9546 7.9325 32.2229 8.75826L33.3828 12.328C33.5028 12.6973 33.8469 12.9473 34.2352 12.9473H37.9886C38.8569 12.9473 39.2179 14.0584 38.5155 14.5687L35.4789 16.775C35.1647 17.0032 35.0333 17.4078 35.1533 17.7771L36.3132 21.3468C36.5815 22.1726 35.6363 22.8592 34.9339 22.3489L31.8973 20.1427C31.5832 19.9144 31.1578 19.9144 30.8436 20.1427L27.807 22.3489C27.1046 22.8592 26.1595 22.1726 26.4278 21.3468L27.5877 17.7771C27.7076 17.4078 27.5762 17.0032 27.2621 16.775L24.2255 14.5687C23.523 14.0584 23.884 12.9473 24.7523 12.9473H28.5057C28.894 12.9473 29.2382 12.6973 29.3582 12.328L30.518 8.75827Z" fill="#FFB800"/>
<path d="M52.0293 8.75827C52.2976 7.9325 53.4658 7.9325 53.7341 8.75826L54.894 12.328C55.014 12.6973 55.3581 12.9473 55.7464 12.9473H59.4999C60.3681 12.9473 60.7291 14.0584 60.0267 14.5687L56.9901 16.775C56.676 17.0032 56.5445 17.4078 56.6645 17.7771L57.8244 21.3468C58.0927 22.1726 57.1476 22.8592 56.4451 22.3489L53.4085 20.1427C53.0944 19.9144 52.669 19.9144 52.3549 20.1427L49.3183 22.3489C48.6158 22.8592 47.6707 22.1726 47.939 21.3468L49.0989 17.7771C49.2189 17.4078 49.0874 17.0032 48.7733 16.775L45.7367 14.5687C45.0343 14.0584 45.3953 12.9473 46.2635 12.9473H50.017C50.4053 12.9473 50.7494 12.6973 50.8694 12.328L52.0293 8.75827Z" fill="#FFB800"/>
<path d="M73.5395 8.75827C73.8078 7.9325 74.9761 7.9325 75.2444 8.75826L76.4043 12.328C76.5242 12.6973 76.8684 12.9473 77.2567 12.9473H81.0101C81.8784 12.9473 82.2394 14.0584 81.537 14.5687L78.5004 16.775C78.1862 17.0032 78.0548 17.4078 78.1748 17.7771L79.3346 21.3468C79.6029 22.1726 78.6578 22.8592 77.9554 22.3489L74.9188 20.1427C74.6046 19.9144 74.1793 19.9144 73.8651 20.1427L70.8285 22.3489C70.1261 22.8592 69.181 22.1726 69.4493 21.3468L70.6091 17.7771C70.7291 17.4078 70.5977 17.0032 70.2835 16.775L67.2469 14.5687C66.5445 14.0584 66.9055 12.9473 67.7738 12.9473H71.5272C71.9155 12.9473 72.2597 12.6973 72.3796 12.328L73.5395 8.75827Z" fill="#FFB800"/>
<path d="M95.0508 8.75827C95.3191 7.9325 96.4873 7.9325 96.7556 8.75826L97.9155 12.328C98.0355 12.6973 98.3796 12.9473 98.7679 12.9473H102.521C103.39 12.9473 103.751 14.0584 103.048 14.5687L100.012 16.775C99.6974 17.0032 99.566 17.4078 99.686 17.7771L100.846 21.3468C101.114 22.1726 100.169 22.8592 99.4666 22.3489L96.43 20.1427C96.1159 19.9144 95.6905 19.9144 95.3764 20.1427L92.3398 22.3489C91.6373 22.8592 90.6922 22.1726 90.9605 21.3468L92.1204 17.7771C92.2404 17.4078 92.1089 17.0032 91.7948 16.775L88.7582 14.5687C88.0557 14.0584 88.4167 12.9473 89.285 12.9473H93.0384C93.4267 12.9473 93.7709 12.6973 93.8909 12.328L95.0508 8.75827Z" fill="#FFB800"/>
<path d="M117.198 22.3788C116.302 22.3788 115.563 22.1853 114.983 21.7983C114.412 21.4113 113.959 20.8512 113.623 20.1179L115.151 19.3235C115.304 19.8123 115.533 20.2146 115.838 20.5303C116.154 20.8359 116.617 20.9887 117.228 20.9887C117.656 20.9887 118.018 20.9123 118.313 20.7595C118.619 20.5965 118.853 20.3725 119.016 20.0873C119.179 19.792 119.26 19.4406 119.26 19.0332C119.26 18.6055 119.184 18.249 119.031 17.9638C118.878 17.6787 118.659 17.4648 118.374 17.3222C118.089 17.1694 117.733 17.0931 117.305 17.0931C117.01 17.0931 116.735 17.1236 116.48 17.1847C116.225 17.2458 115.996 17.3426 115.792 17.475C115.589 17.5972 115.411 17.7601 115.258 17.9638L113.913 17.7041L114.524 12.1434H120.391V13.5488H115.823L115.456 16.3903L115.426 16.5584H115.456C115.691 16.3038 115.991 16.1052 116.358 15.9626C116.735 15.82 117.178 15.7487 117.687 15.7487C118.339 15.7487 118.899 15.8862 119.367 16.1612C119.836 16.426 120.202 16.7977 120.467 17.2764C120.732 17.7551 120.864 18.3101 120.864 18.9416C120.864 19.4915 120.773 19.9804 120.589 20.4081C120.406 20.8359 120.146 21.1974 119.81 21.4928C119.474 21.7881 119.082 22.0122 118.634 22.165C118.196 22.3076 117.717 22.3788 117.198 22.3788ZM123.492 20.1637C123.839 20.1637 124.114 20.2655 124.317 20.4692C124.531 20.6627 124.638 20.9275 124.638 21.2636C124.638 21.5997 124.531 21.8696 124.317 22.0733C124.114 22.277 123.839 22.3788 123.492 22.3788C123.136 22.3788 122.851 22.277 122.637 22.0733C122.433 21.8696 122.331 21.5997 122.331 21.2636C122.331 20.9275 122.433 20.6627 122.637 20.4692C122.851 20.2655 123.136 20.1637 123.492 20.1637ZM129.755 22.3788C128.543 22.3788 127.591 21.9409 126.898 21.065C126.216 20.179 125.875 18.8855 125.875 17.1847C125.875 15.4839 126.216 14.1956 126.898 13.3197C127.591 12.4336 128.543 11.9906 129.755 11.9906C130.977 11.9906 131.929 12.4336 132.612 13.3197C133.304 14.1956 133.65 15.4839 133.65 17.1847C133.65 18.8855 133.304 20.179 132.612 21.065C131.929 21.9409 130.977 22.3788 129.755 22.3788ZM129.755 20.9887C130.244 20.9887 130.651 20.8512 130.977 20.5762C131.313 20.291 131.563 19.8683 131.726 19.3082C131.899 18.7379 131.985 18.03 131.985 17.1847C131.985 16.3394 131.899 15.6367 131.726 15.0765C131.563 14.5062 131.313 14.0835 130.977 13.8085C130.651 13.5234 130.244 13.3808 129.755 13.3808C129.266 13.3808 128.854 13.5234 128.517 13.8085C128.192 14.0835 127.947 14.5062 127.784 15.0765C127.621 15.6367 127.54 16.3394 127.54 17.1847C127.54 18.03 127.621 18.7379 127.784 19.3082C127.947 19.8683 128.192 20.291 128.517 20.5762C128.854 20.8512 129.266 20.9887 129.755 20.9887Z" fill="white"/>
</svg>
